<?xml version="1.0" encoding="utf-8" ?>
<svg baseProfile="full" height="150" version="1.1" width="888" xmlns="http://www.w3.org/2000/svg" xmlns:ev="http://www.w3.org/2001/xml-events" xmlns:xlink="http://www.w3.org/1999/xlink"><defs /><mask height="150" id="a" width="888" x="0" y="0"><rect fill="#eee" height="150" rx="15" width="888" x="0" y="0" /></mask><g fill="none" id="g" mask="url(#a)"><rect fill="#5E6772" height="150" width="585" x="0" y="0" /><rect fill="#2196F3" height="150" width="303" x="585" y="0" /></g><g fill="none" id="shapes"><text fill="#000" fill-opacity="0.3" font-family="Helvetica" font-size="120" x="44" y="120">ipreacher</text><line stroke="#EEEEEE" stroke-opacity="0.3" x1="596" x2="596" y1="0" y2="150" /><line stroke="#EEEEEE" stroke-opacity="0.3" x1="606" x2="606" y1="0" y2="150" /><line stroke="#EEEEEE" stroke-opacity="0.3" x1="616" x2="616" y1="0" y2="150" /><line stroke="#EEEEEE" stroke-opacity="0.3" x1="626" x2="626" y1="0" y2="150" /><line stroke="#EEEEEE" stroke-opacity="0.3" x1="636" x2="636" y1="0" y2="150" /><line stroke="#EEEEEE" stroke-opacity="0.3" x1="646" x2="646" y1="0" y2="150" /><line stroke="#EEEEEE" stroke-opacity="0.3" x1="656" x2="656" y1="0" y2="150" /><line stroke="#EEEEEE" stroke-opacity="0.3" x1="666" x2="666" y1="0" y2="150" /><line stroke="#EEEEEE" stroke-opacity="0.3" x1="676" x2="676" y1="0" y2="150" /><line stroke="#EEEEEE" stroke-opacity="0.3" x1="686" x2="686" y1="0" y2="150" /><line stroke="#EEEEEE" stroke-opacity="0.3" x1="696" x2="696" y1="0" y2="150" /><line stroke="#EEEEEE" stroke-opacity="0.3" x1="706" x2="706" y1="0" y2="150" /><line stroke="#EEEEEE" stroke-opacity="0.3" x1="716" x2="716" y1="0" y2="150" /><line stroke="#EEEEEE" stroke-opacity="0.3" x1="726" x2="726" y1="0" y2="150" /><line stroke="#EEEEEE" stroke-opacity="0.3" x1="736" x2="736" y1="0" y2="150" /><line stroke="#EEEEEE" stroke-opacity="0.3" x1="746" x2="746" y1="0" y2="150" /><line stroke="#EEEEEE" stroke-opacity="0.3" x1="756" x2="756" y1="0" y2="150" /><line stroke="#EEEEEE" stroke-opacity="0.3" x1="766" x2="766" y1="0" y2="150" /><line stroke="#EEEEEE" stroke-opacity="0.3" x1="776" x2="776" y1="0" y2="150" /><line stroke="#EEEEEE" stroke-opacity="0.3" x1="786" x2="786" y1="0" y2="150" /><line stroke="#EEEEEE" stroke-opacity="0.3" x1="796" x2="796" y1="0" y2="150" /><line stroke="#EEEEEE" stroke-opacity="0.3" x1="806" x2="806" y1="0" y2="150" /><line stroke="#EEEEEE" stroke-opacity="0.3" x1="816" x2="816" y1="0" y2="150" /><line stroke="#EEEEEE" stroke-opacity="0.3" x1="826" x2="826" y1="0" y2="150" /><line stroke="#EEEEEE" stroke-opacity="0.3" x1="836" x2="836" y1="0" y2="150" /><line stroke="#EEEEEE" stroke-opacity="0.3" x1="846" x2="846" y1="0" y2="150" /><line stroke="#EEEEEE" stroke-opacity="0.3" x1="856" x2="856" y1="0" y2="150" /><line stroke="#EEEEEE" stroke-opacity="0.3" x1="866" x2="866" y1="0" y2="150" /><line stroke="#EEEEEE" stroke-opacity="0.3" x1="876" x2="876" y1="0" y2="150" /><line stroke="#EEEEEE" stroke-opacity="0.3" x1="886" x2="886" y1="0" y2="150" /><line stroke="#EEEEEE" stroke-opacity="0.3" x1="586" x2="888" y1="10" y2="10" /><line stroke="#EEEEEE" stroke-opacity="0.3" x1="586" x2="888" y1="20" y2="20" /><line stroke="#EEEEEE" stroke-opacity="0.3" x1="586" x2="888" y1="30" y2="30" /><line stroke="#EEEEEE" stroke-opacity="0.3" x1="586" x2="888" y1="40" y2="40" /><line stroke="#EEEEEE" stroke-opacity="0.3" x1="586" x2="888" y1="50" y2="50" /><line stroke="#EEEEEE" stroke-opacity="0.3" x1="586" x2="888" y1="60" y2="60" /><line stroke="#EEEEEE" stroke-opacity="0.3" x1="586" x2="888" y1="70" y2="70" /><line stroke="#EEEEEE" stroke-opacity="0.3" x1="586" x2="888" y1="80" y2="80" /><line stroke="#EEEEEE" stroke-opacity="0.3" x1="586" x2="888" y1="90" y2="90" /><line stroke="#EEEEEE" stroke-opacity="0.3" x1="586" x2="888" y1="100" y2="100" /><line stroke="#EEEEEE" stroke-opacity="0.3" x1="586" x2="888" y1="110" y2="110" /><line stroke="#EEEEEE" stroke-opacity="0.3" x1="586" x2="888" y1="120" y2="120" /><line stroke="#EEEEEE" stroke-opacity="0.3" x1="586" x2="888" y1="130" y2="130" /><line stroke="#EEEEEE" stroke-opacity="0.3" x1="586" x2="888" y1="140" y2="140" /><line stroke="#EEEEEE" stroke-opacity="0.4" stroke-width="2" x1="626" x2="626" y1="-4" y2="4" /><line stroke="#EEEEEE" stroke-opacity="0.4" stroke-width="2" x1="626" x2="626" y1="36" y2="44" /><line stroke="#EEEEEE" stroke-opacity="0.4" stroke-width="2" x1="626" x2="626" y1="76" y2="84" /><line stroke="#EEEEEE" stroke-opacity="0.4" stroke-width="2" x1="626" x2="626" y1="116" y2="124" /><line stroke="#EEEEEE" stroke-opacity="0.4" stroke-width="2" x1="666" x2="666" y1="-4" y2="4" /><line stroke="#EEEEEE" stroke-opacity="0.4" stroke-width="2" x1="666" x2="666" y1="36" y2="44" /><line stroke="#EEEEEE" stroke-opacity="0.4" stroke-width="2" x1="666" x2="666" y1="76" y2="84" /><line stroke="#EEEEEE" stroke-opacity="0.4" stroke-width="2" x1="666" x2="666" y1="116" y2="124" /><line stroke="#EEEEEE" stroke-opacity="0.4" stroke-width="2" x1="706" x2="706" y1="-4" y2="4" /><line stroke="#EEEEEE" stroke-opacity="0.4" stroke-width="2" x1="706" x2="706" y1="36" y2="44" /><line stroke="#EEEEEE" stroke-opacity="0.4" stroke-width="2" x1="706" x2="706" y1="76" y2="84" /><line stroke="#EEEEEE" stroke-opacity="0.4" stroke-width="2" x1="706" x2="706" y1="116" y2="124" /><line stroke="#EEEEEE" stroke-opacity="0.4" stroke-width="2" x1="746" x2="746" y1="-4" y2="4" /><line stroke="#EEEEEE" stroke-opacity="0.4" stroke-width="2" x1="746" x2="746" y1="36" y2="44" /><line stroke="#EEEEEE" stroke-opacity="0.4" stroke-width="2" x1="746" x2="746" y1="76" y2="84" /><line stroke="#EEEEEE" stroke-opacity="0.4" stroke-width="2" x1="746" x2="746" y1="116" y2="124" /><line stroke="#EEEEEE" stroke-opacity="0.4" stroke-width="2" x1="786" x2="786" y1="-4" y2="4" /><line stroke="#EEEEEE" stroke-opacity="0.4" stroke-width="2" x1="786" x2="786" y1="36" y2="44" /><line stroke="#EEEEEE" stroke-opacity="0.4" stroke-width="2" x1="786" x2="786" y1="76" y2="84" /><line stroke="#EEEEEE" stroke-opacity="0.4" stroke-width="2" x1="786" x2="786" y1="116" y2="124" /><line stroke="#EEEEEE" stroke-opacity="0.4" stroke-width="2" x1="826" x2="826" y1="-4" y2="4" /><line stroke="#EEEEEE" stroke-opacity="0.4" stroke-width="2" x1="826" x2="826" y1="36" y2="44" /><line stroke="#EEEEEE" stroke-opacity="0.4" stroke-width="2" x1="826" x2="826" y1="76" y2="84" /><line stroke="#EEEEEE" stroke-opacity="0.4" stroke-width="2" x1="826" x2="826" y1="116" y2="124" /><line stroke="#EEEEEE" stroke-opacity="0.4" stroke-width="2" x1="866" x2="866" y1="-4" y2="4" /><line stroke="#EEEEEE" stroke-opacity="0.4" stroke-width="2" x1="866" x2="866" y1="36" y2="44" /><line stroke="#EEEEEE" stroke-opacity="0.4" stroke-width="2" x1="866" x2="866" y1="76" y2="84" /><line stroke="#EEEEEE" stroke-opacity="0.4" stroke-width="2" x1="866" x2="866" y1="116" y2="124" /><line stroke="#EEEEEE" stroke-opacity="0.4" stroke-width="2" x1="622" x2="630" y1="0" y2="0" /><line stroke="#EEEEEE" stroke-opacity="0.4" stroke-width="2" x1="662" x2="670" y1="0" y2="0" /><line stroke="#EEEEEE" stroke-opacity="0.4" stroke-width="2" x1="702" x2="710" y1="0" y2="0" /><line stroke="#EEEEEE" stroke-opacity="0.4" stroke-width="2" x1="742" x2="750" y1="0" y2="0" /><line stroke="#EEEEEE" stroke-opacity="0.4" stroke-width="2" x1="782" x2="790" y1="0" y2="0" /><line stroke="#EEEEEE" stroke-opacity="0.4" stroke-width="2" x1="822" x2="830" y1="0" y2="0" /><line stroke="#EEEEEE" stroke-opacity="0.4" stroke-width="2" x1="862" x2="870" y1="0" y2="0" /><line stroke="#EEEEEE" stroke-opacity="0.4" stroke-width="2" x1="622" x2="630" y1="40" y2="40" /><line stroke="#EEEEEE" stroke-opacity="0.4" stroke-width="2" x1="662" x2="670" y1="40" y2="40" /><line stroke="#EEEEEE" stroke-opacity="0.4" stroke-width="2" x1="702" x2="710" y1="40" y2="40" /><line stroke="#EEEEEE" stroke-opacity="0.4" stroke-width="2" x1="742" x2="750" y1="40" y2="40" /><line stroke="#EEEEEE" stroke-opacity="0.4" stroke-width="2" x1="782" x2="790" y1="40" y2="40" /><line stroke="#EEEEEE" stroke-opacity="0.4" stroke-width="2" x1="822" x2="830" y1="40" y2="40" /><line stroke="#EEEEEE" stroke-opacity="0.4" stroke-width="2" x1="862" x2="870" y1="40" y2="40" /><line stroke="#EEEEEE" stroke-opacity="0.4" stroke-width="2" x1="622" x2="630" y1="80" y2="80" /><line stroke="#EEEEEE" stroke-opacity="0.4" stroke-width="2" x1="662" x2="670" y1="80" y2="80" /><line stroke="#EEEEEE" stroke-opacity="0.4" stroke-width="2" x1="702" x2="710" y1="80" y2="80" /><line stroke="#EEEEEE" stroke-opacity="0.4" stroke-width="2" x1="742" x2="750" y1="80" y2="80" /><line stroke="#EEEEEE" stroke-opacity="0.4" stroke-width="2" x1="782" x2="790" y1="80" y2="80" /><line stroke="#EEEEEE" stroke-opacity="0.4" stroke-width="2" x1="822" x2="830" y1="80" y2="80" /><line stroke="#EEEEEE" stroke-opacity="0.4" stroke-width="2" x1="862" x2="870" y1="80" y2="80" /><line stroke="#EEEEEE" stroke-opacity="0.4" stroke-width="2" x1="622" x2="630" y1="120" y2="120" /><line stroke="#EEEEEE" stroke-opacity="0.4" stroke-width="2" x1="662" x2="670" y1="120" y2="120" /><line stroke="#EEEEEE" stroke-opacity="0.4" stroke-width="2" x1="702" x2="710" y1="120" y2="120" /><line stroke="#EEEEEE" stroke-opacity="0.4" stroke-width="2" x1="742" x2="750" y1="120" y2="120" /><line stroke="#EEEEEE" stroke-opacity="0.4" stroke-width="2" x1="782" x2="790" y1="120" y2="120" /><line stroke="#EEEEEE" stroke-opacity="0.4" stroke-width="2" x1="822" x2="830" y1="120" y2="120" /><line stroke="#EEEEEE" stroke-opacity="0.4" stroke-width="2" x1="862" x2="870" y1="120" y2="120" /><text fill="#000" fill-opacity="0.3" font-family="Helvetica" font-size="120" x="619" y="120">idea</text><text fill="#FFFFFF" font-family="Helvetica" font-size="120" x="618" y="119">idea</text></g><a target="_blank" xlink:href="https://ipreacher.github.io/"><text fill="#FFFFFF" font-family="Helvetica" font-size="120" x="43" y="119">ipreacher</text></a></svg>